<svg width="149" height="26" viewBox="0 0 149 26" fill="none" xmlns="http://www.w3.org/2000/svg">
<path d="M0.83 25V0.699998H4.28L9.68 13.36V0.699998H13.76V25H10.46L5.06 11.56V25H0.83ZM24.2213 25.33C22.4413 25.33 21.0313 25.01 19.9913 24.37C18.9513 23.73 18.2013 22.82 17.7413 21.64C17.3013 20.44 17.0813 19.01 17.0813 17.35V8.29C17.0813 6.63 17.3013 5.21 17.7413 4.03C18.2013 2.85 18.9513 1.95 19.9913 1.33C21.0313 0.709999 22.4413 0.399998 24.2213 0.399998C26.0213 0.399998 27.4413 0.719998 28.4813 1.36C29.5413 1.98 30.2913 2.88 30.7313 4.06C31.1913 5.22 31.4213 6.63 31.4213 8.29V17.35C31.4213 19.01 31.1913 20.44 30.7313 21.64C30.2913 22.82 29.5413 23.73 28.4813 24.37C27.4413 25.01 26.0213 25.33 24.2213 25.33ZM24.2213 21.76C24.8613 21.76 25.3313 21.62 25.6313 21.34C25.9313 21.04 26.1313 20.65 26.2313 20.17C26.3313 19.67 26.3813 19.14 26.3813 18.58V7.09C26.3813 6.53 26.3313 6.01 26.2313 5.53C26.1313 5.05 25.9313 4.67 25.6313 4.39C25.3313 4.09 24.8613 3.94 24.2213 3.94C23.6213 3.94 23.1713 4.09 22.8713 4.39C22.5713 4.67 22.3713 5.05 22.2713 5.53C22.1713 6.01 22.1213 6.53 22.1213 7.09V18.58C22.1213 19.14 22.1613 19.67 22.2413 20.17C22.3413 20.65 22.5413 21.04 22.8413 21.34C23.1413 21.62 23.6013 21.76 24.2213 21.76ZM36.8307 25V4.39H33.0807V0.699998H45.5007V4.39H41.8107V25H36.8307ZM47.705 25V0.699998H54.005C55.645 0.699998 57.045 0.889999 58.205 1.27C59.385 1.63 60.285 2.28 60.905 3.22C61.545 4.16 61.865 5.46 61.865 7.12C61.865 8.12 61.775 9.01 61.595 9.79C61.435 10.55 61.135 11.22 60.695 11.8C60.275 12.36 59.675 12.81 58.895 13.15L62.255 25H57.185L54.395 13.99H52.655V25H47.705ZM52.655 11.05H54.095C54.895 11.05 55.525 10.92 55.985 10.66C56.445 10.4 56.765 10.01 56.945 9.49C57.145 8.95 57.245 8.29 57.245 7.51C57.245 6.39 57.035 5.54 56.615 4.96C56.215 4.36 55.455 4.06 54.335 4.06H52.655V11.05ZM65.1952 25V0.699998H75.7852V4.12H70.1452V10.57H74.4952V14.02H70.1452V21.64H75.8452V25H65.1952Z" fill="#0C2340"/>
<path d="M78.3195 25V0.699998H84.4695C86.5895 0.699998 88.2395 0.969998 89.4195 1.51C90.5995 2.03 91.4295 2.86 91.9095 4C92.3895 5.12 92.6295 6.58 92.6295 8.38V17.2C92.6295 19.02 92.3895 20.51 91.9095 21.67C91.4295 22.81 90.5995 23.65 89.4195 24.19C88.2595 24.73 86.6295 25 84.5295 25H78.3195ZM83.6895 21.28H84.5295C85.3495 21.28 85.9395 21.16 86.2995 20.92C86.6595 20.68 86.8795 20.32 86.9595 19.84C87.0595 19.36 87.1095 18.76 87.1095 18.04V7.45C87.1095 6.73 87.0495 6.15 86.9295 5.71C86.8295 5.27 86.5995 4.95 86.2395 4.75C85.8795 4.55 85.2995 4.45 84.4995 4.45H83.6895V21.28ZM95.7261 25L100.316 0.699998H106.436L110.966 25H106.016L105.206 19.87H101.636L100.796 25H95.7261ZM102.116 16.66H104.696L103.406 7.18L102.116 16.66ZM114.68 25L115.1 0.699998H120.86L123.53 14.83L126.41 0.699998H131.96L132.38 25H128.57L128.12 8.83L125.3 25H121.91L118.91 8.71L118.55 25H114.68ZM137.243 25V0.699998H148.163V4.36H142.613V10.39H146.843V14.11H142.613V21.37H148.223V25H137.243Z" fill="#C99700"/>
</svg>
